<svg width="3463" height="140" viewBox="0 0 3463 140" fill="none" xmlns="http://www.w3.org/2000/svg">
<path d="M237 0H286.5L258.5 140H209L237 0Z" fill="url(#paint0_linear_3_92)"/>
<path d="M1956 0H2005.5L1977.5 140H1928L1956 0Z" fill="url(#paint1_linear_3_92)"/>
<path d="M861 0H910.5L882.5 140H833L861 0Z" fill="url(#paint2_linear_3_92)"/>
<path d="M2580 0H2629.5L2601.5 140H2552L2580 0Z" fill="url(#paint3_linear_3_92)"/>
<path d="M549 0H598.5L570.5 140H521L549 0Z" fill="url(#paint4_linear_3_92)"/>
<path d="M2268 0H2317.5L2289.5 140H2240L2268 0Z" fill="url(#paint5_linear_3_92)"/>
<path d="M1173 0H1222.5L1194.5 140H1145L1173 0Z" fill="url(#paint6_linear_3_92)"/>
<path d="M2892 0H2941.5L2913.5 140H2864L2892 0Z" fill="url(#paint7_linear_3_92)"/>
<path d="M393 0H442.5L414.5 140H365L393 0Z" fill="url(#paint8_linear_3_92)"/>
<path d="M2112 0H2161.5L2133.5 140H2084L2112 0Z" fill="url(#paint9_linear_3_92)"/>
<path d="M1017 0H1066.5L1038.5 140H989L1017 0Z" fill="url(#paint10_linear_3_92)"/>
<path d="M2736 0H2785.5L2757.5 140H2708L2736 0Z" fill="url(#paint11_linear_3_92)"/>
<path d="M705 0H754.5L726.5 140H677L705 0Z" fill="url(#paint12_linear_3_92)"/>
<path d="M2424 0H2473.5L2445.5 140H2396L2424 0Z" fill="url(#paint13_linear_3_92)"/>
<path d="M1329 0H1378.5L1350.5 140H1301L1329 0Z" fill="url(#paint14_linear_3_92)"/>
<path d="M3048 0H3097.5L3069.5 140H3020L3048 0Z" fill="url(#paint15_linear_3_92)"/>
<path d="M341 0H390.5L362.5 140H313L341 0Z" fill="url(#paint16_linear_3_92)"/>
<path d="M2060 0H2109.5L2081.5 140H2032L2060 0Z" fill="url(#paint17_linear_3_92)"/>
<path d="M965 0H1014.5L986.5 140H937L965 0Z" fill="url(#paint18_linear_3_92)"/>
<path d="M2684 0H2733.5L2705.5 140H2656L2684 0Z" fill="url(#paint19_linear_3_92)"/>
<path d="M653 0H702.5L674.5 140H625L653 0Z" fill="url(#paint20_linear_3_92)"/>
<path d="M2372 0H2421.5L2393.5 140H2344L2372 0Z" fill="url(#paint21_linear_3_92)"/>
<path d="M1277 0H1326.5L1298.5 140H1249L1277 0Z" fill="url(#paint22_linear_3_92)"/>
<path d="M2996 0H3045.5L3017.5 140H2968L2996 0Z" fill="url(#paint23_linear_3_92)"/>
<path d="M497 0H546.5L518.5 140H469L497 0Z" fill="url(#paint24_linear_3_92)"/>
<path d="M2216 0H2265.5L2237.5 140H2188L2216 0Z" fill="url(#paint25_linear_3_92)"/>
<path d="M1121 0H1170.5L1142.5 140H1093L1121 0Z" fill="url(#paint26_linear_3_92)"/>
<path d="M2840 0H2889.5L2861.5 140H2812L2840 0Z" fill="url(#paint27_linear_3_92)"/>
<path d="M809 0H858.5L830.5 140H781L809 0Z" fill="url(#paint28_linear_3_92)"/>
<path d="M2528 0H2577.5L2549.5 140H2500L2528 0Z" fill="url(#paint29_linear_3_92)"/>
<path d="M1433 0H1482.5L1454.5 140H1405L1433 0Z" fill="url(#paint30_linear_3_92)"/>
<path d="M3152 0H3201.5L3173.5 140H3124L3152 0Z" fill="url(#paint31_linear_3_92)"/>
<path d="M289 0H338.5L310.5 140H261L289 0Z" fill="url(#paint32_linear_3_92)"/>
<path d="M2008 0H2057.5L2029.5 140H1980L2008 0Z" fill="url(#paint33_linear_3_92)"/>
<path d="M913 0H962.5L934.5 140H885L913 0Z" fill="url(#paint34_linear_3_92)"/>
<path d="M2632 0H2681.5L2653.5 140H2604L2632 0Z" fill="url(#paint35_linear_3_92)"/>
<path d="M601 0H650.5L622.5 140H573L601 0Z" fill="url(#paint36_linear_3_92)"/>
<path d="M2320 0H2369.5L2341.5 140H2292L2320 0Z" fill="url(#paint37_linear_3_92)"/>
<path d="M1225 0H1274.5L1246.5 140H1197L1225 0Z" fill="url(#paint38_linear_3_92)"/>
<path d="M2944 0H2993.5L2965.5 140H2916L2944 0Z" fill="url(#paint39_linear_3_92)"/>
<path d="M445 0H494.5L466.5 140H417L445 0Z" fill="url(#paint40_linear_3_92)"/>
<path d="M2164 0H2213.5L2185.5 140H2136L2164 0Z" fill="url(#paint41_linear_3_92)"/>
<path d="M1069 0H1118.5L1090.5 140H1041L1069 0Z" fill="url(#paint42_linear_3_92)"/>
<path d="M2788 0H2837.5L2809.5 140H2760L2788 0Z" fill="url(#paint43_linear_3_92)"/>
<path d="M757 0H806.5L778.5 140H729L757 0Z" fill="url(#paint44_linear_3_92)"/>
<path d="M2476 0H2525.5L2497.5 140H2448L2476 0Z" fill="url(#paint45_linear_3_92)"/>
<path d="M1381 0H1430.5L1402.5 140H1353L1381 0Z" fill="url(#paint46_linear_3_92)"/>
<path d="M3100 0H3149.5L3121.5 140H3072L3100 0Z" fill="url(#paint47_linear_3_92)"/>
<path d="M1590 0H1639.5L1611.5 140H1562L1590 0Z" fill="url(#paint48_linear_3_92)"/>
<path d="M3309 0H3358.5L3330.5 140H3281L3309 0Z" fill="url(#paint49_linear_3_92)"/>
<path d="M1538 0H1587.5L1559.5 140H1510L1538 0Z" fill="url(#paint50_linear_3_92)"/>
<path d="M3257 0H3306.5L3278.5 140H3229L3257 0Z" fill="url(#paint51_linear_3_92)"/>
<path d="M1694 0H1743.5L1715.5 140H1666L1694 0Z" fill="url(#paint52_linear_3_92)"/>
<path d="M3413 0H3462.5L3434.5 140H3385L3413 0Z" fill="url(#paint53_linear_3_92)"/>
<path d="M1486 0H1535.5L1507.5 140H1458L1486 0Z" fill="url(#paint54_linear_3_92)"/>
<path d="M3205 0H3254.5L3226.5 140H3177L3205 0Z" fill="url(#paint55_linear_3_92)"/>
<path d="M1642 0H1691.5L1663.5 140H1614L1642 0Z" fill="url(#paint56_linear_3_92)"/>
<path d="M3361 0H3410.5L3382.5 140H3333L3361 0Z" fill="url(#paint57_linear_3_92)"/>
<path d="M28 0H77.5L49.5 140H0L28 0Z" fill="url(#paint58_linear_3_92)"/>
<path d="M1747 0H1796.5L1768.5 140H1719L1747 0Z" fill="url(#paint59_linear_3_92)"/>
<path d="M184 0H233.5L205.5 140H156L184 0Z" fill="url(#paint60_linear_3_92)"/>
<path d="M1903 0H1952.5L1924.5 140H1875L1903 0Z" fill="url(#paint61_linear_3_92)"/>
<path d="M132 0H181.5L153.5 140H104L132 0Z" fill="url(#paint62_linear_3_92)"/>
<path d="M1851 0H1900.5L1872.5 140H1823L1851 0Z" fill="url(#paint63_linear_3_92)"/>
<path d="M80 0H129.5L101.5 140H52L80 0Z" fill="url(#paint64_linear_3_92)"/>
<path d="M1799 0H1848.5L1820.5 140H1771L1799 0Z" fill="url(#paint65_linear_3_92)"/>
<defs>
<linearGradient id="paint0_linear_3_92" x1="1809.75" y1="0" x2="1809.75" y2="140" gradientUnits="userSpaceOnUse">
<stop stop-color="#8F8F8F"/>
<stop offset="1" stop-color="#8F8F8F" stop-opacity="0"/>
</linearGradient>
<linearGradient id="paint1_linear_3_92" x1="1809.75" y1="0" x2="1809.75" y2="140" gradientUnits="userSpaceOnUse">
<stop stop-color="#8F8F8F"/>
<stop offset="1" stop-color="#8F8F8F" stop-opacity="0"/>
</linearGradient>
<linearGradient id="paint2_linear_3_92" x1="1809.75" y1="0" x2="1809.75" y2="140" gradientUnits="userSpaceOnUse">
<stop stop-color="#8F8F8F"/>
<stop offset="1" stop-color="#8F8F8F" stop-opacity="0"/>
</linearGradient>
<linearGradient id="paint3_linear_3_92" x1="1809.75" y1="0" x2="1809.75" y2="140" gradientUnits="userSpaceOnUse">
<stop stop-color="#8F8F8F"/>
<stop offset="1" stop-color="#8F8F8F" stop-opacity="0"/>
</linearGradient>
<linearGradient id="paint4_linear_3_92" x1="1809.75" y1="0" x2="1809.75" y2="140" gradientUnits="userSpaceOnUse">
<stop stop-color="#8F8F8F"/>
<stop offset="1" stop-color="#8F8F8F" stop-opacity="0"/>
</linearGradient>
<linearGradient id="paint5_linear_3_92" x1="1809.75" y1="0" x2="1809.75" y2="140" gradientUnits="userSpaceOnUse">
<stop stop-color="#8F8F8F"/>
<stop offset="1" stop-color="#8F8F8F" stop-opacity="0"/>
</linearGradient>
<linearGradient id="paint6_linear_3_92" x1="1809.75" y1="0" x2="1809.75" y2="140" gradientUnits="userSpaceOnUse">
<stop stop-color="#8F8F8F"/>
<stop offset="1" stop-color="#8F8F8F" stop-opacity="0"/>
</linearGradient>
<linearGradient id="paint7_linear_3_92" x1="1809.75" y1="0" x2="1809.75" y2="140" gradientUnits="userSpaceOnUse">
<stop stop-color="#8F8F8F"/>
<stop offset="1" stop-color="#8F8F8F" stop-opacity="0"/>
</linearGradient>
<linearGradient id="paint8_linear_3_92" x1="1809.75" y1="0" x2="1809.75" y2="140" gradientUnits="userSpaceOnUse">
<stop stop-color="#8F8F8F"/>
<stop offset="1" stop-color="#8F8F8F" stop-opacity="0"/>
</linearGradient>
<linearGradient id="paint9_linear_3_92" x1="1809.75" y1="0" x2="1809.75" y2="140" gradientUnits="userSpaceOnUse">
<stop stop-color="#8F8F8F"/>
<stop offset="1" stop-color="#8F8F8F" stop-opacity="0"/>
</linearGradient>
<linearGradient id="paint10_linear_3_92" x1="1809.75" y1="0" x2="1809.75" y2="140" gradientUnits="userSpaceOnUse">
<stop stop-color="#8F8F8F"/>
<stop offset="1" stop-color="#8F8F8F" stop-opacity="0"/>
</linearGradient>
<linearGradient id="paint11_linear_3_92" x1="1809.75" y1="0" x2="1809.75" y2="140" gradientUnits="userSpaceOnUse">
<stop stop-color="#8F8F8F"/>
<stop offset="1" stop-color="#8F8F8F" stop-opacity="0"/>
</linearGradient>
<linearGradient id="paint12_linear_3_92" x1="1809.75" y1="0" x2="1809.75" y2="140" gradientUnits="userSpaceOnUse">
<stop stop-color="#8F8F8F"/>
<stop offset="1" stop-color="#8F8F8F" stop-opacity="0"/>
</linearGradient>
<linearGradient id="paint13_linear_3_92" x1="1809.75" y1="0" x2="1809.75" y2="140" gradientUnits="userSpaceOnUse">
<stop stop-color="#8F8F8F"/>
<stop offset="1" stop-color="#8F8F8F" stop-opacity="0"/>
</linearGradient>
<linearGradient id="paint14_linear_3_92" x1="1809.75" y1="0" x2="1809.75" y2="140" gradientUnits="userSpaceOnUse">
<stop stop-color="#8F8F8F"/>
<stop offset="1" stop-color="#8F8F8F" stop-opacity="0"/>
</linearGradient>
<linearGradient id="paint15_linear_3_92" x1="1809.75" y1="0" x2="1809.75" y2="140" gradientUnits="userSpaceOnUse">
<stop stop-color="#8F8F8F"/>
<stop offset="1" stop-color="#8F8F8F" stop-opacity="0"/>
</linearGradient>
<linearGradient id="paint16_linear_3_92" x1="1809.75" y1="0" x2="1809.75" y2="140" gradientUnits="userSpaceOnUse">
<stop stop-color="#8F8F8F"/>
<stop offset="1" stop-color="#8F8F8F" stop-opacity="0"/>
</linearGradient>
<linearGradient id="paint17_linear_3_92" x1="1809.75" y1="0" x2="1809.75" y2="140" gradientUnits="userSpaceOnUse">
<stop stop-color="#8F8F8F"/>
<stop offset="1" stop-color="#8F8F8F" stop-opacity="0"/>
</linearGradient>
<linearGradient id="paint18_linear_3_92" x1="1809.75" y1="0" x2="1809.75" y2="140" gradientUnits="userSpaceOnUse">
<stop stop-color="#8F8F8F"/>
<stop offset="1" stop-color="#8F8F8F" stop-opacity="0"/>
</linearGradient>
<linearGradient id="paint19_linear_3_92" x1="1809.75" y1="0" x2="1809.75" y2="140" gradientUnits="userSpaceOnUse">
<stop stop-color="#8F8F8F"/>
<stop offset="1" stop-color="#8F8F8F" stop-opacity="0"/>
</linearGradient>
<linearGradient id="paint20_linear_3_92" x1="1809.75" y1="0" x2="1809.75" y2="140" gradientUnits="userSpaceOnUse">
<stop stop-color="#8F8F8F"/>
<stop offset="1" stop-color="#8F8F8F" stop-opacity="0"/>
</linearGradient>
<linearGradient id="paint21_linear_3_92" x1="1809.75" y1="0" x2="1809.75" y2="140" gradientUnits="userSpaceOnUse">
<stop stop-color="#8F8F8F"/>
<stop offset="1" stop-color="#8F8F8F" stop-opacity="0"/>
</linearGradient>
<linearGradient id="paint22_linear_3_92" x1="1809.75" y1="0" x2="1809.75" y2="140" gradientUnits="userSpaceOnUse">
<stop stop-color="#8F8F8F"/>
<stop offset="1" stop-color="#8F8F8F" stop-opacity="0"/>
</linearGradient>
<linearGradient id="paint23_linear_3_92" x1="1809.75" y1="0" x2="1809.75" y2="140" gradientUnits="userSpaceOnUse">
<stop stop-color="#8F8F8F"/>
<stop offset="1" stop-color="#8F8F8F" stop-opacity="0"/>
</linearGradient>
<linearGradient id="paint24_linear_3_92" x1="1809.75" y1="0" x2="1809.75" y2="140" gradientUnits="userSpaceOnUse">
<stop stop-color="#8F8F8F"/>
<stop offset="1" stop-color="#8F8F8F" stop-opacity="0"/>
</linearGradient>
<linearGradient id="paint25_linear_3_92" x1="1809.75" y1="0" x2="1809.75" y2="140" gradientUnits="userSpaceOnUse">
<stop stop-color="#8F8F8F"/>
<stop offset="1" stop-color="#8F8F8F" stop-opacity="0"/>
</linearGradient>
<linearGradient id="paint26_linear_3_92" x1="1809.75" y1="0" x2="1809.75" y2="140" gradientUnits="userSpaceOnUse">
<stop stop-color="#8F8F8F"/>
<stop offset="1" stop-color="#8F8F8F" stop-opacity="0"/>
</linearGradient>
<linearGradient id="paint27_linear_3_92" x1="1809.75" y1="0" x2="1809.75" y2="140" gradientUnits="userSpaceOnUse">
<stop stop-color="#8F8F8F"/>
<stop offset="1" stop-color="#8F8F8F" stop-opacity="0"/>
</linearGradient>
<linearGradient id="paint28_linear_3_92" x1="1809.75" y1="0" x2="1809.75" y2="140" gradientUnits="userSpaceOnUse">
<stop stop-color="#8F8F8F"/>
<stop offset="1" stop-color="#8F8F8F" stop-opacity="0"/>
</linearGradient>
<linearGradient id="paint29_linear_3_92" x1="1809.75" y1="0" x2="1809.75" y2="140" gradientUnits="userSpaceOnUse">
<stop stop-color="#8F8F8F"/>
<stop offset="1" stop-color="#8F8F8F" stop-opacity="0"/>
</linearGradient>
<linearGradient id="paint30_linear_3_92" x1="1809.75" y1="0" x2="1809.75" y2="140" gradientUnits="userSpaceOnUse">
<stop stop-color="#8F8F8F"/>
<stop offset="1" stop-color="#8F8F8F" stop-opacity="0"/>
</linearGradient>
<linearGradient id="paint31_linear_3_92" x1="1809.75" y1="0" x2="1809.75" y2="140" gradientUnits="userSpaceOnUse">
<stop stop-color="#8F8F8F"/>
<stop offset="1" stop-color="#8F8F8F" stop-opacity="0"/>
</linearGradient>
<linearGradient id="paint32_linear_3_92" x1="1809.75" y1="0" x2="1809.75" y2="140" gradientUnits="userSpaceOnUse">
<stop stop-color="#8F8F8F"/>
<stop offset="1" stop-color="#8F8F8F" stop-opacity="0"/>
</linearGradient>
<linearGradient id="paint33_linear_3_92" x1="1809.75" y1="0" x2="1809.75" y2="140" gradientUnits="userSpaceOnUse">
<stop stop-color="#8F8F8F"/>
<stop offset="1" stop-color="#8F8F8F" stop-opacity="0"/>
</linearGradient>
<linearGradient id="paint34_linear_3_92" x1="1809.75" y1="0" x2="1809.75" y2="140" gradientUnits="userSpaceOnUse">
<stop stop-color="#8F8F8F"/>
<stop offset="1" stop-color="#8F8F8F" stop-opacity="0"/>
</linearGradient>
<linearGradient id="paint35_linear_3_92" x1="1809.75" y1="0" x2="1809.75" y2="140" gradientUnits="userSpaceOnUse">
<stop stop-color="#8F8F8F"/>
<stop offset="1" stop-color="#8F8F8F" stop-opacity="0"/>
</linearGradient>
<linearGradient id="paint36_linear_3_92" x1="1809.75" y1="0" x2="1809.75" y2="140" gradientUnits="userSpaceOnUse">
<stop stop-color="#8F8F8F"/>
<stop offset="1" stop-color="#8F8F8F" stop-opacity="0"/>
</linearGradient>
<linearGradient id="paint37_linear_3_92" x1="1809.75" y1="0" x2="1809.75" y2="140" gradientUnits="userSpaceOnUse">
<stop stop-color="#8F8F8F"/>
<stop offset="1" stop-color="#8F8F8F" stop-opacity="0"/>
</linearGradient>
<linearGradient id="paint38_linear_3_92" x1="1809.75" y1="0" x2="1809.75" y2="140" gradientUnits="userSpaceOnUse">
<stop stop-color="#8F8F8F"/>
<stop offset="1" stop-color="#8F8F8F" stop-opacity="0"/>
</linearGradient>
<linearGradient id="paint39_linear_3_92" x1="1809.75" y1="0" x2="1809.75" y2="140" gradientUnits="userSpaceOnUse">
<stop stop-color="#8F8F8F"/>
<stop offset="1" stop-color="#8F8F8F" stop-opacity="0"/>
</linearGradient>
<linearGradient id="paint40_linear_3_92" x1="1809.75" y1="0" x2="1809.75" y2="140" gradientUnits="userSpaceOnUse">
<stop stop-color="#8F8F8F"/>
<stop offset="1" stop-color="#8F8F8F" stop-opacity="0"/>
</linearGradient>
<linearGradient id="paint41_linear_3_92" x1="1809.75" y1="0" x2="1809.75" y2="140" gradientUnits="userSpaceOnUse">
<stop stop-color="#8F8F8F"/>
<stop offset="1" stop-color="#8F8F8F" stop-opacity="0"/>
</linearGradient>
<linearGradient id="paint42_linear_3_92" x1="1809.75" y1="0" x2="1809.75" y2="140" gradientUnits="userSpaceOnUse">
<stop stop-color="#8F8F8F"/>
<stop offset="1" stop-color="#8F8F8F" stop-opacity="0"/>
</linearGradient>
<linearGradient id="paint43_linear_3_92" x1="1809.75" y1="0" x2="1809.75" y2="140" gradientUnits="userSpaceOnUse">
<stop stop-color="#8F8F8F"/>
<stop offset="1" stop-color="#8F8F8F" stop-opacity="0"/>
</linearGradient>
<linearGradient id="paint44_linear_3_92" x1="1809.75" y1="0" x2="1809.75" y2="140" gradientUnits="userSpaceOnUse">
<stop stop-color="#8F8F8F"/>
<stop offset="1" stop-color="#8F8F8F" stop-opacity="0"/>
</linearGradient>
<linearGradient id="paint45_linear_3_92" x1="1809.75" y1="0" x2="1809.75" y2="140" gradientUnits="userSpaceOnUse">
<stop stop-color="#8F8F8F"/>
<stop offset="1" stop-color="#8F8F8F" stop-opacity="0"/>
</linearGradient>
<linearGradient id="paint46_linear_3_92" x1="1809.75" y1="0" x2="1809.75" y2="140" gradientUnits="userSpaceOnUse">
<stop stop-color="#8F8F8F"/>
<stop offset="1" stop-color="#8F8F8F" stop-opacity="0"/>
</linearGradient>
<linearGradient id="paint47_linear_3_92" x1="1809.75" y1="0" x2="1809.75" y2="140" gradientUnits="userSpaceOnUse">
<stop stop-color="#8F8F8F"/>
<stop offset="1" stop-color="#8F8F8F" stop-opacity="0"/>
</linearGradient>
<linearGradient id="paint48_linear_3_92" x1="1809.75" y1="0" x2="1809.75" y2="140" gradientUnits="userSpaceOnUse">
<stop stop-color="#8F8F8F"/>
<stop offset="1" stop-color="#8F8F8F" stop-opacity="0"/>
</linearGradient>
<linearGradient id="paint49_linear_3_92" x1="1809.75" y1="0" x2="1809.75" y2="140" gradientUnits="userSpaceOnUse">
<stop stop-color="#8F8F8F"/>
<stop offset="1" stop-color="#8F8F8F" stop-opacity="0"/>
</linearGradient>
<linearGradient id="paint50_linear_3_92" x1="1809.75" y1="0" x2="1809.75" y2="140" gradientUnits="userSpaceOnUse">
<stop stop-color="#8F8F8F"/>
<stop offset="1" stop-color="#8F8F8F" stop-opacity="0"/>
</linearGradient>
<linearGradient id="paint51_linear_3_92" x1="1809.75" y1="0" x2="1809.75" y2="140" gradientUnits="userSpaceOnUse">
<stop stop-color="#8F8F8F"/>
<stop offset="1" stop-color="#8F8F8F" stop-opacity="0"/>
</linearGradient>
<linearGradient id="paint52_linear_3_92" x1="1809.75" y1="0" x2="1809.75" y2="140" gradientUnits="userSpaceOnUse">
<stop stop-color="#8F8F8F"/>
<stop offset="1" stop-color="#8F8F8F" stop-opacity="0"/>
</linearGradient>
<linearGradient id="paint53_linear_3_92" x1="1809.75" y1="0" x2="1809.75" y2="140" gradientUnits="userSpaceOnUse">
<stop stop-color="#8F8F8F"/>
<stop offset="1" stop-color="#8F8F8F" stop-opacity="0"/>
</linearGradient>
<linearGradient id="paint54_linear_3_92" x1="1809.75" y1="0" x2="1809.75" y2="140" gradientUnits="userSpaceOnUse">
<stop stop-color="#8F8F8F"/>
<stop offset="1" stop-color="#8F8F8F" stop-opacity="0"/>
</linearGradient>
<linearGradient id="paint55_linear_3_92" x1="1809.75" y1="0" x2="1809.75" y2="140" gradientUnits="userSpaceOnUse">
<stop stop-color="#8F8F8F"/>
<stop offset="1" stop-color="#8F8F8F" stop-opacity="0"/>
</linearGradient>
<linearGradient id="paint56_linear_3_92" x1="1809.75" y1="0" x2="1809.75" y2="140" gradientUnits="userSpaceOnUse">
<stop stop-color="#8F8F8F"/>
<stop offset="1" stop-color="#8F8F8F" stop-opacity="0"/>
</linearGradient>
<linearGradient id="paint57_linear_3_92" x1="1809.75" y1="0" x2="1809.75" y2="140" gradientUnits="userSpaceOnUse">
<stop stop-color="#8F8F8F"/>
<stop offset="1" stop-color="#8F8F8F" stop-opacity="0"/>
</linearGradient>
<linearGradient id="paint58_linear_3_92" x1="1809.75" y1="0" x2="1809.75" y2="140" gradientUnits="userSpaceOnUse">
<stop stop-color="#8F8F8F"/>
<stop offset="1" stop-color="#8F8F8F" stop-opacity="0"/>
</linearGradient>
<linearGradient id="paint59_linear_3_92" x1="1809.75" y1="0" x2="1809.75" y2="140" gradientUnits="userSpaceOnUse">
<stop stop-color="#8F8F8F"/>
<stop offset="1" stop-color="#8F8F8F" stop-opacity="0"/>
</linearGradient>
<linearGradient id="paint60_linear_3_92" x1="1809.75" y1="0" x2="1809.75" y2="140" gradientUnits="userSpaceOnUse">
<stop stop-color="#8F8F8F"/>
<stop offset="1" stop-color="#8F8F8F" stop-opacity="0"/>
</linearGradient>
<linearGradient id="paint61_linear_3_92" x1="1809.75" y1="0" x2="1809.75" y2="140" gradientUnits="userSpaceOnUse">
<stop stop-color="#8F8F8F"/>
<stop offset="1" stop-color="#8F8F8F" stop-opacity="0"/>
</linearGradient>
<linearGradient id="paint62_linear_3_92" x1="1809.75" y1="0" x2="1809.75" y2="140" gradientUnits="userSpaceOnUse">
<stop stop-color="#8F8F8F"/>
<stop offset="1" stop-color="#8F8F8F" stop-opacity="0"/>
</linearGradient>
<linearGradient id="paint63_linear_3_92" x1="1809.75" y1="0" x2="1809.75" y2="140" gradientUnits="userSpaceOnUse">
<stop stop-color="#8F8F8F"/>
<stop offset="1" stop-color="#8F8F8F" stop-opacity="0"/>
</linearGradient>
<linearGradient id="paint64_linear_3_92" x1="1809.75" y1="0" x2="1809.75" y2="140" gradientUnits="userSpaceOnUse">
<stop stop-color="#8F8F8F"/>
<stop offset="1" stop-color="#8F8F8F" stop-opacity="0"/>
</linearGradient>
<linearGradient id="paint65_linear_3_92" x1="1809.75" y1="0" x2="1809.75" y2="140" gradientUnits="userSpaceOnUse">
<stop stop-color="#8F8F8F"/>
<stop offset="1" stop-color="#8F8F8F" stop-opacity="0"/>
</linearGradient>
</defs>
</svg>
