<?xml version="1.0" standalone="no"?>
<!DOCTYPE svg PUBLIC "-//W3C//DTD SVG 20010904//EN"
 "http://www.w3.org/TR/2001/REC-SVG-20010904/DTD/svg10.dtd">
<svg version="1.0" xmlns="http://www.w3.org/2000/svg"
 width="1126.000000pt" height="1280.000000pt" viewBox="0 0 1126.000000 1280.000000"
 preserveAspectRatio="xMidYMid meet">
<metadata>
Created by potrace 1.15, written by Peter Selinger 2001-2017
</metadata>
<g transform="translate(0.000000,1280.000000) scale(0.100000,-0.100000)"
fill="#ffffff" stroke="none">
<path d="M3280 12787 c-54 -27 -29 -77 39 -77 80 0 167 -71 230 -189 87 -164
55 -444 -82 -711 -30 -58 -92 -179 -139 -270 -111 -216 -132 -291 -132 -465 1
-114 4 -140 28 -209 63 -184 194 -297 313 -269 33 8 38 13 41 41 3 29 -6 42
-83 122 -98 102 -119 142 -135 257 -18 137 10 261 98 433 242 470 247 482 278
660 19 109 14 264 -12 352 -56 192 -211 338 -358 338 -34 0 -72 -6 -86 -13z"/>
<path d="M2433 12739 c-26 -26 -15 -58 25 -75 193 -84 264 -134 331 -235 62
-92 85 -180 78 -293 -7 -129 -40 -219 -188 -516 -190 -381 -224 -492 -224
-730 0 -160 3 -170 70 -248 46 -53 117 -96 145 -87 39 12 43 39 15 107 -41
101 -55 169 -55 270 0 160 31 255 198 604 130 272 159 342 183 439 24 103 25
273 1 366 -41 156 -192 319 -352 380 -67 25 -210 37 -227 18z"/>
<path d="M5540 12205 c-8 -2 -49 -9 -90 -15 -156 -25 -362 -105 -500 -194 -90
-58 -235 -197 -312 -300 -32 -43 -83 -129 -113 -190 -113 -235 -150 -412 -142
-686 6 -192 15 -241 88 -467 51 -159 123 -338 204 -508 184 -389 821 -1536
879 -1584 27 -22 767 226 1206 404 552 223 1022 476 1291 693 286 230 460 525
521 877 17 100 19 147 15 285 -6 192 -17 242 -87 386 -108 223 -293 409 -518
523 -35 18 -112 48 -170 68 -103 35 -113 37 -278 41 -135 3 -190 1 -255 -13
-123 -25 -302 -86 -414 -143 l-100 -50 -53 101 c-237 445 -535 698 -901 762
-73 13 -227 18 -271 10z"/>
<path d="M3442 10219 c-143 -17 -296 -73 -407 -149 -168 -115 -310 -308 -409
-554 -13 -30 -20 -37 -33 -31 -10 4 -90 31 -178 61 -212 71 -383 90 -582 64
-90 -12 -238 -68 -323 -123 -180 -116 -347 -348 -422 -587 -21 -69 -23 -92
-23 -295 l1 -220 32 -93 c79 -230 204 -419 372 -566 120 -104 426 -275 705
-394 327 -139 1136 -438 1317 -487 l48 -13 123 201 c432 704 707 1287 827
1752 83 322 62 613 -64 878 -92 192 -258 380 -401 454 -183 94 -369 127 -583
102z"/>
<path d="M1033 6213 l-1033 -3 0 -48 c0 -62 34 -449 60 -682 77 -701 240
-1520 402 -2020 201 -620 557 -1314 920 -1795 650 -860 1437 -1430 2255 -1635
l121 -30 964 0 964 0 154 53 c523 181 1008 456 1405 798 161 138 594 585 717
739 115 145 329 444 380 531 l27 46 130 6 c466 24 1087 163 1447 324 230 103
437 247 638 447 212 209 358 410 481 661 143 290 187 492 189 860 1 190 -1
218 -22 290 -123 432 -581 830 -1092 950 -110 26 -401 38 -589 25 -91 -6 -179
-14 -195 -17 -28 -6 -29 -5 -23 28 3 19 9 104 12 189 3 85 8 185 11 223 l5 67
-3648 -2 c-2006 -2 -4113 -4 -4680 -5z m9081 -1258 c233 -69 377 -189 436
-361 28 -80 42 -259 30 -377 -35 -338 -319 -738 -695 -980 -200 -128 -480
-239 -770 -306 -104 -23 -358 -71 -362 -67 -1 1 27 74 63 162 198 483 330
1006 415 1642 14 109 22 121 116 184 94 64 135 83 233 113 81 24 94 25 265 21
159 -4 190 -7 269 -31z"/>
</g>
</svg>
